<svg width="214" height="169" viewBox="0 0 214 169" fill="none" xmlns="http://www.w3.org/2000/svg">
<path d="M188.794 75.306L188.787 75.3001C187.513 74.313 185.943 73.6614 184.251 73.445C182.558 73.2285 180.84 73.4599 179.297 74.1027L179.288 74.1067L141.024 89.9058L138.514 90.9422L137.121 88.6109L114.898 51.4104C114.137 50.1707 113.018 49.1112 111.632 48.3621C110.241 47.61 108.643 47.2059 107.004 47.2059C105.365 47.2059 103.767 47.61 102.376 48.3621C100.99 49.1112 99.8713 50.1707 99.1099 51.4104L76.8868 88.6109L75.4941 90.9422L72.9841 89.9058L34.7206 74.1067L34.7146 74.1042C33.1658 73.461 31.4413 73.2289 29.7425 73.444C28.044 73.6591 26.4665 74.3089 25.1836 75.2952C23.9026 76.2803 22.9741 77.5543 22.4693 78.9541C21.9655 80.3513 21.8943 81.8421 22.2588 83.2685L22.261 83.2771L41.4683 159.323L41.4706 159.332C41.7273 160.362 42.2099 161.346 42.9022 162.224L40.4316 164.173L42.9022 162.224C43.595 163.102 44.4848 163.855 45.527 164.427L45.5345 164.431L45.5419 164.435C46.9617 165.225 48.6023 165.651 50.2878 165.654C51.0885 165.652 51.8833 165.546 52.6481 165.341L52.6654 165.336L52.6828 165.332C88.2003 156.213 125.712 156.212 161.23 165.327C163.676 165.919 166.267 165.583 168.422 164.418L168.427 164.415C169.47 163.854 170.358 163.107 171.047 162.235C171.735 161.363 172.21 160.383 172.455 159.359L172.46 159.34L172.465 159.321L191.747 83.277L188.794 75.306ZM188.794 75.306L188.802 75.3118M188.794 75.306L188.802 75.3118M188.802 75.3118C190.085 76.2941 191.017 77.5659 191.525 78.9644C192.032 80.3592 192.107 81.8484 191.748 83.2742L188.802 75.3118Z" fill="#E2A52A" stroke="#E2A52A" stroke-width="6.29412"/>
<circle cx="107.001" cy="25.1765" r="22.0294" fill="#E2A52A" stroke="#E2A52A" stroke-width="6.29412"/>
<circle cx="107" cy="113.294" r="15.7353" fill="#E2A52A" stroke="#E2A52A" stroke-width="6.29412"/>
<circle cx="198.263" cy="66.0882" r="12.5882" fill="#E2A52A" stroke="#E2A52A" stroke-width="6.29412"/>
<circle cx="15.7353" cy="66.0882" r="12.5882" fill="#E2A52A" stroke="#E2A52A" stroke-width="6.29412"/>
<circle cx="59.7927" cy="122.735" r="6.29412" fill="#E2A52A" stroke="#E2A52A" stroke-width="6.29412"/>
<circle cx="154.207" cy="122.735" r="6.29412" fill="#E2A52A" stroke="#E2A52A" stroke-width="6.29412"/>
</svg>
