<svg width="60" height="60" viewBox="0 0 60 60" fill="none" xmlns="http://www.w3.org/2000/svg">
<path fill-rule="evenodd" clip-rule="evenodd" d="M10.5179 0.132292C9.97074 0.322673 9.38579 1.02417 9.22982 1.6767C9.15701 1.98168 9.09706 2.90864 9.09666 3.73643L9.09585 5.24154L6.71552 5.30531C4.6561 5.36066 4.23582 5.41555 3.59763 5.71258C2.09956 6.40986 0.972421 7.71711 0.347501 9.48168L0.0438911 10.3392L0.00768317 28.5812C-0.0168577 40.9126 0.0172047 47.076 0.112552 47.6036C0.558445 50.0686 2.46539 52.196 4.65516 52.6713C5.11312 52.7706 11.1197 52.828 21.0636 52.828C35.4899 52.828 36.7431 52.8075 36.6661 52.5746C36.6201 52.4352 36.493 51.7243 36.3836 50.9949C35.1681 42.8907 39.6454 34.898 46.5762 32.799C48.3617 32.2583 50.935 32.122 52.2292 32.4996L52.5453 32.592L52.5445 22.1672C52.5441 16.3014 52.4879 11.3456 52.4159 10.8349C52.0472 8.21793 50.2206 5.9817 48.0127 5.44471C47.6218 5.34959 46.3999 5.27179 45.2971 5.27179H43.2922L43.2916 3.43971C43.2911 1.43097 43.1383 0.892723 42.4111 0.338733C41.9412 -0.0192635 40.8882 -0.0192635 40.4183 0.338733C39.6911 0.892723 39.5383 1.43097 39.5378 3.43971L39.5373 5.27179H36.3858H33.2344V3.51517C33.2344 2.10003 33.1859 1.65315 32.9846 1.21533C32.2657 -0.347947 30.2766 -0.296493 29.6108 1.30264C29.3972 1.81578 29.3454 2.26452 29.3454 3.60592V5.27179H26.194H23.0426L23.042 3.43971C23.0415 1.43097 22.8888 0.892723 22.1615 0.338733C21.6916 -0.0192635 20.6387 -0.0192635 20.1688 0.338733C19.4415 0.892723 19.2888 1.43097 19.2882 3.43971L19.2877 5.27179H16.1363H12.9848V3.51517C12.9848 1.39386 12.8031 0.855458 11.9072 0.32127C11.2754 -0.0554373 11.1188 -0.076643 10.5179 0.132292ZM41.1591 23.7562C42.3874 24.4946 42.3874 26.9005 41.1591 27.6389C40.8037 27.8527 39.0845 27.8805 26.2342 27.8798C12.0752 27.8794 11.7001 27.8717 11.2823 27.5755C10.0515 26.7029 10.0236 24.804 11.2278 23.8686L11.6835 23.5146H26.2206C39.0825 23.5146 40.8037 23.5424 41.1591 23.7562ZM34.5246 33.8295C35.4037 34.8517 35.2898 36.4214 34.2757 37.2624L33.8379 37.6256H26.2373C18.7701 37.6256 18.6303 37.62 18.2665 37.3041C17.2894 36.4558 17.046 35.15 17.6739 34.1248C18.2602 33.1675 18.0735 33.1866 26.4265 33.2248L34.0348 33.2598L34.5246 33.8295ZM48.3563 36.9188C46.3665 37.3404 44.5471 38.4432 43.0878 40.1127C41.8393 41.5408 41.0693 42.9506 40.5288 44.798C40.2357 45.8002 40.152 46.4154 40.1035 47.9284C40.0296 50.2234 40.3085 51.7452 41.1728 53.7635C41.6338 54.8401 41.9802 55.3678 43.0191 56.5757C44.4955 58.2922 45.7831 59.1523 47.7134 59.7111C49.3138 60.1744 51.6058 60.0715 53.1487 59.4671C56.3281 58.2218 58.6407 55.4237 59.6704 51.5767C60.0766 50.0594 60.1138 47.0668 59.746 45.4996C58.7937 41.443 56.0364 38.2162 52.6123 37.1513C51.668 36.8577 49.265 36.7264 48.3563 36.9188ZM54.4933 44.5666C55.3444 45.1783 55.6097 46.5838 55.0549 47.5425C54.8862 47.8339 53.5737 49.1788 52.1381 50.5311C49.2222 53.2776 48.8662 53.4908 47.9058 53.0643C47.4365 52.856 47.1205 52.4993 46.2034 51.1421C44.8384 49.122 44.7672 48.9723 44.7678 48.1216C44.7688 46.8507 45.5384 45.9674 46.6447 45.9674C47.3768 45.9674 47.838 46.2683 48.4063 47.1162L48.878 47.8202L50.611 46.1791C51.5642 45.2767 52.4648 44.4783 52.6123 44.4051C53.1091 44.1587 54.0362 44.2382 54.4933 44.5666Z" fill="white"/>
</svg>
