<svg width="60" height="60" viewBox="0 0 60 60" fill="none" xmlns="http://www.w3.org/2000/svg">
<path fill-rule="evenodd" clip-rule="evenodd" d="M26.998 0.289393C25.4766 0.609947 23.6243 1.35824 22.3111 2.18286C21.3541 2.78369 5.06883 16.1253 3.75818 17.3821C2.21973 18.8573 0.955343 20.9933 0.32456 23.1825L0 24.3093V36.985C0 48.9777 0.014387 49.7137 0.26687 50.6465C1.51856 55.2709 4.93131 58.7112 9.28261 59.7347C10.4277 60.004 10.8762 60.0237 14.9952 59.9846L19.4651 59.942L20.4134 59.4935C21.731 58.8702 22.6697 57.9504 23.3122 56.6528L23.8377 55.5917L23.914 49.246C23.9868 43.1897 24.0042 42.8628 24.2953 42.0789C24.463 41.6271 24.7558 40.9923 24.946 40.6685C25.4473 39.8143 26.7449 38.6477 27.681 38.2097C28.4008 37.8728 28.6597 37.83 29.9735 37.83C31.2872 37.83 31.5462 37.8728 32.266 38.2097C33.2088 38.651 34.5005 39.8159 35.0107 40.6851C35.2062 41.0182 35.4981 41.6845 35.6593 42.1659C35.9332 42.9834 35.9577 43.4553 36.0308 49.3164L36.1092 55.5917L36.6348 56.6528C37.2773 57.9504 38.216 58.8702 39.5335 59.4935L40.4818 59.942L44.9518 59.9846C49.0777 60.0237 49.5175 60.0044 50.6643 59.7335C54.4428 58.8411 57.5917 56.09 59.0764 52.3841C59.9917 50.0997 59.9371 50.992 59.9838 37.562C60.0309 24.0497 60.0336 24.0994 59.1449 21.7985C58.6133 20.4222 57.3396 18.5087 56.2546 17.4564C54.7371 15.9844 38.6607 2.81791 37.521 2.11357C34.4991 0.245873 30.4976 -0.447769 26.998 0.289393Z" fill="white"/>
</svg>
