<svg width="290" height="290" viewBox="0 0 290 290" fill="none" xmlns="http://www.w3.org/2000/svg">
<g filter="url(#filter0_i_1437_271)">
<rect y="145" width="205.061" height="205.061" rx="50.3294" transform="rotate(-45 0 145)" fill="#B4437A"/>
</g>
<rect x="7.11765" y="145" width="194.995" height="194.995" rx="45.2964" transform="rotate(-45 7.11765 145)" stroke="#B4437A" stroke-width="10.0659"/>
<line x1="198.649" y1="53.6514" x2="53.6486" y2="198.651" stroke="#E07AAB" stroke-opacity="0.41" stroke-width="34.5714"/>
<line x1="238.642" y1="94.0254" x2="86.7367" y2="232.121" stroke="#E07AAB" stroke-opacity="0.47" stroke-width="11.5238"/>
<path d="M156.619 161.827C157.559 161.827 158.297 162.108 158.834 162.672C159.371 163.209 159.639 163.907 159.639 164.766V170H120.422V167.061C120.422 166.47 120.543 165.853 120.785 165.209C121.026 164.564 121.416 163.974 121.952 163.437L139.99 145.359C141.52 143.829 142.876 142.366 144.057 140.97C145.265 139.574 146.285 138.178 147.117 136.783C147.976 135.387 148.62 133.978 149.05 132.555C149.506 131.105 149.734 129.589 149.734 128.005C149.734 126.475 149.493 125.133 149.009 123.979C148.553 122.798 147.909 121.831 147.077 121.08C146.272 120.301 145.292 119.724 144.138 119.349C143.01 118.946 141.762 118.745 140.393 118.745C139.078 118.745 137.856 118.932 136.729 119.308C135.629 119.684 134.635 120.207 133.75 120.879C132.891 121.55 132.166 122.355 131.575 123.294C131.012 124.207 130.596 125.214 130.327 126.314C129.925 127.415 129.401 128.153 128.757 128.529C128.14 128.904 127.227 128.985 126.019 128.77L121.469 127.965C121.872 125.227 122.623 122.825 123.724 120.758C124.851 118.691 126.261 116.973 127.952 115.604C129.643 114.208 131.575 113.161 133.75 112.463C135.951 111.739 138.326 111.376 140.876 111.376C143.453 111.376 145.815 111.766 147.963 112.544C150.137 113.296 152.002 114.383 153.559 115.805C155.143 117.201 156.378 118.906 157.263 120.919C158.149 122.932 158.592 125.2 158.592 127.723C158.592 129.871 158.27 131.857 157.626 133.682C157.008 135.508 156.163 137.252 155.089 138.917C154.016 140.581 152.754 142.205 151.304 143.788C149.882 145.345 148.379 146.929 146.795 148.54L132.783 162.873C133.938 162.551 135.092 162.296 136.246 162.108C137.427 161.92 138.541 161.827 139.588 161.827H156.619Z" fill="white"/>
<defs>
<filter id="filter0_i_1437_271" x="20.8477" y="20.8471" width="248.305" height="271.353" filterUnits="userSpaceOnUse" color-interpolation-filters="sRGB">
<feFlood flood-opacity="0" result="BackgroundImageFix"/>
<feBlend mode="normal" in="SourceGraphic" in2="BackgroundImageFix" result="shape"/>
<feColorMatrix in="SourceAlpha" type="matrix" values="0 0 0 0 0 0 0 0 0 0 0 0 0 0 0 0 0 0 127 0" result="hardAlpha"/>
<feOffset dy="23.0476"/>
<feGaussianBlur stdDeviation="11.5238"/>
<feComposite in2="hardAlpha" operator="arithmetic" k2="-1" k3="1"/>
<feColorMatrix type="matrix" values="0 0 0 0 0 0 0 0 0 0 0 0 0 0 0 0 0 0 0.25 0"/>
<feBlend mode="normal" in2="shape" result="effect1_innerShadow_1437_271"/>
</filter>
</defs>
</svg>
