<svg width="290" height="290" viewBox="0 0 290 290" fill="none" xmlns="http://www.w3.org/2000/svg">
<rect x="145" y="8.52941" width="192.999" height="192.999" rx="43.9688" transform="rotate(45 145 8.52941)" fill="#C02727" stroke="#C02727" stroke-width="12.0624"/>
<mask id="path-2-outside-1_1437_330" maskUnits="userSpaceOnUse" x="105.383" y="94.8571" width="76" height="96" fill="black">
<rect fill="white" x="105.383" y="94.8571" width="76" height="96"/>
<path d="M123.076 127.485C123.559 124.204 124.459 121.325 125.778 118.848C127.129 116.371 128.818 114.312 130.844 112.672C132.871 110.999 135.187 109.745 137.792 108.908C140.43 108.04 143.277 107.606 146.333 107.606C149.421 107.606 152.219 108.056 154.728 108.957C157.269 109.825 159.44 111.047 161.242 112.624C163.075 114.2 164.474 116.082 165.439 118.269C166.437 120.456 166.935 122.853 166.935 125.458C166.935 127.678 166.662 129.64 166.115 131.344C165.6 133.017 164.844 134.497 163.847 135.783C162.882 137.07 161.692 138.148 160.277 139.016C158.861 139.885 157.269 140.608 155.5 141.187C159.81 142.442 163.043 144.452 165.198 147.219C167.353 149.953 168.431 153.395 168.431 157.544C168.431 160.889 167.804 163.865 166.549 166.47C165.295 169.076 163.59 171.279 161.435 173.08C159.312 174.882 156.819 176.265 153.956 177.23C151.125 178.163 148.118 178.629 144.933 178.629C141.363 178.629 138.275 178.211 135.669 177.375C133.064 176.506 130.812 175.284 128.914 173.708C127.049 172.099 125.489 170.169 124.234 167.918C122.98 165.666 121.918 163.141 121.05 160.343L125.537 158.461C126.727 157.946 127.853 157.801 128.914 158.027C130.008 158.252 130.796 158.847 131.279 159.812C131.793 160.841 132.372 161.951 133.016 163.141C133.659 164.299 134.479 165.377 135.476 166.374C136.506 167.339 137.76 168.159 139.24 168.834C140.752 169.478 142.601 169.799 144.789 169.799C147.008 169.799 148.938 169.446 150.579 168.738C152.251 167.998 153.634 167.065 154.728 165.939C155.854 164.781 156.69 163.495 157.237 162.08C157.784 160.664 158.057 159.265 158.057 157.882C158.057 156.145 157.848 154.553 157.43 153.105C157.012 151.625 156.192 150.371 154.969 149.342C153.779 148.312 152.074 147.508 149.855 146.929C147.668 146.318 144.789 146.012 141.218 146.012V138.534C144.145 138.502 146.606 138.212 148.6 137.665C150.627 137.086 152.235 136.314 153.425 135.349C154.648 134.352 155.516 133.162 156.031 131.779C156.578 130.396 156.851 128.884 156.851 127.243C156.851 125.474 156.578 123.914 156.031 122.563C155.484 121.212 154.712 120.086 153.715 119.186C152.75 118.253 151.592 117.561 150.241 117.111C148.89 116.661 147.394 116.435 145.754 116.435C144.177 116.435 142.714 116.661 141.363 117.111C140.044 117.561 138.854 118.188 137.792 118.993C136.763 119.797 135.895 120.762 135.187 121.888C134.479 122.981 133.965 124.187 133.643 125.506C133.193 126.825 132.581 127.71 131.809 128.16C131.07 128.61 129.976 128.707 128.528 128.45L123.076 127.485Z"/>
</mask>
<path d="M123.076 127.485C123.559 124.204 124.459 121.325 125.778 118.848C127.129 116.371 128.818 114.312 130.844 112.672C132.871 110.999 135.187 109.745 137.792 108.908C140.43 108.04 143.277 107.606 146.333 107.606C149.421 107.606 152.219 108.056 154.728 108.957C157.269 109.825 159.44 111.047 161.242 112.624C163.075 114.2 164.474 116.082 165.439 118.269C166.437 120.456 166.935 122.853 166.935 125.458C166.935 127.678 166.662 129.64 166.115 131.344C165.6 133.017 164.844 134.497 163.847 135.783C162.882 137.07 161.692 138.148 160.277 139.016C158.861 139.885 157.269 140.608 155.5 141.187C159.81 142.442 163.043 144.452 165.198 147.219C167.353 149.953 168.431 153.395 168.431 157.544C168.431 160.889 167.804 163.865 166.549 166.47C165.295 169.076 163.59 171.279 161.435 173.08C159.312 174.882 156.819 176.265 153.956 177.23C151.125 178.163 148.118 178.629 144.933 178.629C141.363 178.629 138.275 178.211 135.669 177.375C133.064 176.506 130.812 175.284 128.914 173.708C127.049 172.099 125.489 170.169 124.234 167.918C122.98 165.666 121.918 163.141 121.05 160.343L125.537 158.461C126.727 157.946 127.853 157.801 128.914 158.027C130.008 158.252 130.796 158.847 131.279 159.812C131.793 160.841 132.372 161.951 133.016 163.141C133.659 164.299 134.479 165.377 135.476 166.374C136.506 167.339 137.76 168.159 139.24 168.834C140.752 169.478 142.601 169.799 144.789 169.799C147.008 169.799 148.938 169.446 150.579 168.738C152.251 167.998 153.634 167.065 154.728 165.939C155.854 164.781 156.69 163.495 157.237 162.08C157.784 160.664 158.057 159.265 158.057 157.882C158.057 156.145 157.848 154.553 157.43 153.105C157.012 151.625 156.192 150.371 154.969 149.342C153.779 148.312 152.074 147.508 149.855 146.929C147.668 146.318 144.789 146.012 141.218 146.012V138.534C144.145 138.502 146.606 138.212 148.6 137.665C150.627 137.086 152.235 136.314 153.425 135.349C154.648 134.352 155.516 133.162 156.031 131.779C156.578 130.396 156.851 128.884 156.851 127.243C156.851 125.474 156.578 123.914 156.031 122.563C155.484 121.212 154.712 120.086 153.715 119.186C152.75 118.253 151.592 117.561 150.241 117.111C148.89 116.661 147.394 116.435 145.754 116.435C144.177 116.435 142.714 116.661 141.363 117.111C140.044 117.561 138.854 118.188 137.792 118.993C136.763 119.797 135.895 120.762 135.187 121.888C134.479 122.981 133.965 124.187 133.643 125.506C133.193 126.825 132.581 127.71 131.809 128.16C131.07 128.61 129.976 128.707 128.528 128.45L123.076 127.485Z" fill="white"/>
<path d="M123.076 127.485L111.142 125.73L109.438 137.32L120.974 139.362L123.076 127.485ZM125.778 118.848L115.189 113.072L115.16 113.125L115.131 113.179L125.778 118.848ZM130.844 112.672L138.434 122.047L138.479 122.011L138.523 121.975L130.844 112.672ZM137.792 108.908L141.479 120.394L141.522 120.38L141.565 120.366L137.792 108.908ZM154.728 108.957L150.653 120.31L150.74 120.341L150.827 120.371L154.728 108.957ZM161.242 112.624L153.299 121.702L153.338 121.736L153.378 121.771L161.242 112.624ZM165.439 118.269L154.403 123.138L154.433 123.205L154.464 123.272L165.439 118.269ZM166.115 131.344L154.629 127.66L154.607 127.729L154.586 127.797L166.115 131.344ZM163.847 135.783L154.313 128.394L154.254 128.47L154.197 128.546L163.847 135.783ZM160.277 139.016L153.968 128.735L153.968 128.735L160.277 139.016ZM155.5 141.187L151.748 129.723L114.656 141.863L152.129 152.769L155.5 141.187ZM165.198 147.219L155.683 154.632L155.704 154.659L155.725 154.686L165.198 147.219ZM166.549 166.47L155.681 161.237L166.549 166.47ZM161.435 173.08L153.699 163.825L153.665 163.854L153.631 163.883L161.435 173.08ZM153.956 177.23L157.731 188.686L157.77 188.673L157.809 188.66L153.956 177.23ZM135.669 177.375L131.855 188.818L131.919 188.839L131.983 188.86L135.669 177.375ZM128.914 173.708L121.038 182.844L121.122 182.916L121.208 182.987L128.914 173.708ZM124.234 167.918L113.697 173.789H113.697L124.234 167.918ZM121.05 160.343L116.385 149.219L106.282 153.455L109.529 163.918L121.05 160.343ZM125.537 158.461L130.202 169.585L130.263 169.559L130.325 169.532L125.537 158.461ZM128.914 158.027L126.411 169.826L126.447 169.834L126.482 169.841L128.914 158.027ZM131.279 159.812L142.068 154.417L142.068 154.417L131.279 159.812ZM133.016 163.141L122.404 168.877L122.437 168.938L122.471 168.999L133.016 163.141ZM135.476 166.374L126.947 174.903L127.085 175.041L127.226 175.174L135.476 166.374ZM139.24 168.834L134.23 179.807L134.373 179.872L134.517 179.934L139.24 168.834ZM150.579 168.738L155.356 179.814L155.407 179.792L155.458 179.769L150.579 168.738ZM154.728 165.939L146.079 157.531L146.076 157.535L154.728 165.939ZM157.43 153.105L145.822 156.386L145.832 156.419L145.841 156.453L157.43 153.105ZM154.969 149.342L147.079 158.465L147.139 158.517L147.199 158.568L154.969 149.342ZM149.855 146.929L146.609 158.547L146.709 158.575L146.81 158.601L149.855 146.929ZM141.218 146.012H129.156V158.075H141.218V146.012ZM141.218 138.534L141.086 126.472L129.156 126.603V138.534H141.218ZM148.6 137.665L151.79 149.298L151.852 149.281L151.914 149.263L148.6 137.665ZM153.425 135.349L161.022 144.719L161.036 144.707L161.05 144.696L153.425 135.349ZM156.031 131.779L144.813 127.344L144.768 127.458L144.726 127.572L156.031 131.779ZM156.031 122.563L167.212 118.037V118.037L156.031 122.563ZM153.715 119.186L145.331 127.858L145.478 128L145.63 128.137L153.715 119.186ZM150.241 117.111L154.055 105.667L154.055 105.667L150.241 117.111ZM141.363 117.111L137.548 105.667L137.507 105.681L137.465 105.696L141.363 117.111ZM137.792 118.993L130.508 109.378L130.437 109.432L130.366 109.487L137.792 118.993ZM135.187 121.888L145.314 128.44L145.357 128.374L145.399 128.307L135.187 121.888ZM133.643 125.506L145.058 129.404L145.233 128.891L145.362 128.365L133.643 125.506ZM131.809 128.16L125.732 117.741L125.634 117.798L125.538 117.856L131.809 128.16ZM128.528 128.45L130.64 116.573L130.631 116.572L128.528 128.45ZM135.01 129.24C135.327 127.084 135.863 125.573 136.425 124.517L115.131 113.179C113.056 117.076 111.79 121.323 111.142 125.73L135.01 129.24ZM136.368 124.624C137.026 123.417 137.731 122.617 138.434 122.047L123.255 103.296C119.905 106.008 117.232 109.325 115.189 113.072L136.368 124.624ZM138.523 121.975C139.321 121.316 140.269 120.782 141.479 120.394L134.106 97.4232C130.105 98.7075 126.421 100.682 123.166 103.369L138.523 121.975ZM141.565 120.366C142.869 119.936 144.431 119.668 146.333 119.668V95.5433C142.123 95.5433 137.991 96.1437 134.02 97.4511L141.565 120.366ZM146.333 119.668C148.248 119.668 149.64 119.946 150.653 120.31L158.803 97.6036C154.798 96.1657 150.594 95.5433 146.333 95.5433V119.668ZM150.827 120.371C152.062 120.793 152.815 121.279 153.299 121.702L169.185 103.546C166.065 100.816 162.476 98.8573 158.629 97.5425L150.827 120.371ZM153.378 121.771C153.865 122.189 154.172 122.614 154.403 123.138L176.476 113.4C174.777 109.549 172.286 106.211 169.105 103.477L153.378 121.771ZM154.464 123.272C154.686 123.761 154.873 124.432 154.873 125.458H178.998C178.998 121.273 178.187 117.152 176.415 113.265L154.464 123.272ZM154.873 125.458C154.873 126.714 154.715 127.392 154.629 127.66L177.601 135.029C178.609 131.888 178.998 128.641 178.998 125.458H154.873ZM154.586 127.797C154.467 128.184 154.354 128.341 154.313 128.394L173.382 143.173C175.335 140.652 176.734 137.85 177.644 134.892L154.586 127.797ZM154.197 128.546C154.174 128.577 154.131 128.635 153.968 128.735L166.586 149.297C169.254 147.66 171.59 145.563 173.497 143.021L154.197 128.546ZM153.968 128.735C153.446 129.056 152.728 129.403 151.748 129.723L159.252 152.652C161.81 151.814 164.277 150.714 166.586 149.297L153.968 128.735ZM152.129 152.769C154.688 153.514 155.474 154.364 155.683 154.632L174.714 139.805C170.612 134.541 164.933 131.37 158.871 129.606L152.129 152.769ZM155.725 154.686C155.897 154.904 156.369 155.565 156.369 157.544H180.493C180.493 151.224 178.809 145.001 174.671 139.751L155.725 154.686ZM156.369 157.544C156.369 159.361 156.035 160.502 155.681 161.237L177.417 171.703C179.572 167.227 180.493 162.418 180.493 157.544H156.369ZM155.681 161.237C155.149 162.341 154.496 163.159 153.699 163.825L169.17 182.336C172.684 179.399 175.44 175.81 177.417 171.703L155.681 161.237ZM153.631 163.883C152.767 164.615 151.643 165.28 150.103 165.799L157.809 188.66C161.995 187.25 165.856 185.148 169.239 182.278L153.631 163.883ZM150.181 165.774C148.649 166.278 146.923 166.567 144.933 166.567V190.692C149.313 190.692 153.602 190.047 157.731 188.686L150.181 165.774ZM144.933 166.567C142.255 166.567 140.47 166.247 139.356 165.889L131.983 188.86C136.079 190.175 140.471 190.692 144.933 190.692V166.567ZM139.484 165.931C138.138 165.483 137.244 164.945 136.621 164.428L121.208 182.987C124.381 185.622 127.989 187.53 131.855 188.818L139.484 165.931ZM136.791 164.571C136.046 163.93 135.37 163.12 134.772 162.047L113.697 173.789C115.608 177.218 118.052 180.269 121.038 182.844L136.791 164.571ZM134.772 162.047C133.974 160.615 133.224 158.875 132.57 156.767L109.529 163.918C110.612 167.407 111.985 170.717 113.697 173.789L134.772 162.047ZM125.715 171.466L130.202 169.585L120.872 147.337L116.385 149.219L125.715 171.466ZM130.325 169.532C129.677 169.812 128.244 170.215 126.411 169.826L131.417 146.227C127.462 145.388 123.777 146.08 120.749 147.389L130.325 169.532ZM126.482 169.841C125.505 169.64 124.269 169.183 123.057 168.268C121.834 167.344 121.002 166.23 120.49 165.206L142.068 154.417C139.865 150.012 135.916 147.153 131.347 146.212L126.482 169.841ZM120.49 165.206C121.071 166.368 121.71 167.593 122.404 168.877L143.627 157.405C143.035 156.309 142.516 155.314 142.068 154.417L120.49 165.206ZM122.471 168.999C123.693 171.198 125.208 173.165 126.947 174.903L144.006 157.844C143.75 157.589 143.625 157.4 143.56 157.283L122.471 168.999ZM127.226 175.174C129.344 177.159 131.738 178.67 134.23 179.807L144.249 157.861C143.782 157.648 143.667 157.518 143.726 157.574L127.226 175.174ZM134.517 179.934C137.929 181.386 141.487 181.862 144.789 181.862V157.737C144.277 157.737 143.969 157.699 143.828 157.674C143.689 157.65 143.756 157.647 143.963 157.735L134.517 179.934ZM144.789 181.862C148.265 181.862 151.889 181.31 155.356 179.814L145.801 157.662C145.987 157.582 145.751 157.737 144.789 157.737V181.862ZM155.458 179.769C158.314 178.506 161.046 176.747 163.38 174.344L146.076 157.535C146.223 157.384 146.188 157.49 145.699 157.706L155.458 179.769ZM163.377 174.348C165.561 172.101 167.319 169.453 168.489 166.427L145.985 157.732C146.016 157.651 146.054 157.582 146.086 157.532C146.117 157.484 146.124 157.485 146.079 157.531L163.377 174.348ZM168.489 166.427C169.519 163.759 170.12 160.889 170.12 157.882H145.995C145.995 157.773 146.006 157.694 146.014 157.655C146.021 157.618 146.02 157.642 145.985 157.732L168.489 166.427ZM170.12 157.882C170.12 155.181 169.795 152.444 169.019 149.757L145.841 156.453C145.902 156.661 145.995 157.108 145.995 157.882H170.12ZM169.038 149.825C167.937 145.929 165.73 142.633 162.739 140.115L147.199 158.568C146.971 158.376 146.68 158.075 146.405 157.656C146.129 157.233 145.937 156.792 145.822 156.386L169.038 149.825ZM162.86 140.218C159.78 137.554 156.151 136.106 152.9 135.257L146.81 158.601C147.072 158.669 147.27 158.732 147.413 158.782C147.556 158.833 147.632 158.867 147.652 158.876C147.672 158.886 147.624 158.865 147.526 158.802C147.427 158.74 147.271 158.631 147.079 158.465L162.86 140.218ZM153.101 135.312C149.433 134.287 145.336 133.95 141.218 133.95V158.075C144.241 158.075 145.902 158.349 146.609 158.547L153.101 135.312ZM153.281 146.012V138.534H129.156V146.012H153.281ZM141.351 150.595C144.92 150.556 148.482 150.205 151.79 149.298L145.411 126.032C144.73 126.219 143.37 126.447 141.086 126.472L141.351 150.595ZM151.914 149.263C154.954 148.395 158.19 147.015 161.022 144.719L145.828 125.98C146.072 125.782 146.198 125.734 146.107 125.777C146.015 125.822 145.759 125.932 145.287 126.067L151.914 149.263ZM161.05 144.696C163.816 142.44 166.022 139.517 167.336 135.985L144.726 127.572C144.853 127.231 145.032 126.897 145.25 126.598C145.464 126.304 145.669 126.11 145.8 126.002L161.05 144.696ZM167.248 136.214C168.408 133.28 168.913 130.246 168.913 127.243H144.789C144.789 127.392 144.776 127.459 144.776 127.461C144.776 127.462 144.778 127.451 144.784 127.429C144.79 127.407 144.8 127.378 144.813 127.344L167.248 136.214ZM168.913 127.243C168.913 124.246 168.451 121.098 167.212 118.037L144.85 127.089C144.778 126.912 144.762 126.814 144.765 126.829C144.768 126.847 144.789 126.977 144.789 127.243H168.913ZM167.212 118.037C166.04 115.142 164.262 112.458 161.8 110.234L145.63 128.137C145.415 127.943 145.234 127.732 145.093 127.527C144.955 127.325 144.881 127.167 144.85 127.089L167.212 118.037ZM162.098 110.513C159.758 108.251 157.011 106.653 154.055 105.667L146.426 128.554C146.321 128.519 146.148 128.449 145.938 128.323C145.726 128.197 145.518 128.039 145.331 127.858L162.098 110.513ZM154.055 105.667C151.303 104.75 148.497 104.373 145.754 104.373V128.498C146.291 128.498 146.476 128.571 146.426 128.554L154.055 105.667ZM145.754 104.373C143.018 104.373 140.253 104.766 137.548 105.667L145.177 128.554C145.182 128.553 145.222 128.54 145.308 128.526C145.395 128.513 145.541 128.498 145.754 128.498V104.373ZM137.465 105.696C134.986 106.542 132.642 107.761 130.508 109.378L145.076 128.607C145.078 128.606 145.085 128.601 145.105 128.59C145.126 128.579 145.174 128.556 145.261 128.526L137.465 105.696ZM130.366 109.487C128.216 111.167 126.412 113.182 124.974 115.468L145.399 128.307C145.395 128.314 145.374 128.346 145.335 128.389C145.296 128.432 145.255 128.47 145.219 128.498L130.366 109.487ZM125.06 115.335C123.588 117.609 122.552 120.073 121.924 122.648L145.362 128.365C145.372 128.324 145.375 128.321 145.365 128.346C145.36 128.358 145.353 128.373 145.344 128.39C145.335 128.407 145.325 128.424 145.314 128.44L125.06 115.335ZM122.228 121.608C122.261 121.51 122.443 120.996 122.923 120.302C123.422 119.58 124.311 118.569 125.732 117.741L137.887 138.579C142.237 136.042 144.17 132.005 145.058 129.404L122.228 121.608ZM125.538 117.856C127.116 116.896 128.555 116.627 129.374 116.554C129.793 116.517 130.114 116.525 130.31 116.538C130.507 116.55 130.622 116.57 130.64 116.573L126.417 140.326C128.898 140.767 133.588 141.199 138.081 138.464L125.538 117.856ZM130.631 116.572L125.179 115.607L120.974 139.362L126.426 140.327L130.631 116.572Z" fill="#C02727" mask="url(#path-2-outside-1_1437_330)"/>
<g filter="url(#filter0_i_1437_330)">
<rect y="145" width="205.061" height="205.061" rx="50" transform="rotate(-45 0 145)" fill="#C02727"/>
</g>
<rect x="8.52941" y="145" width="192.999" height="192.999" rx="43.9688" transform="rotate(-45 8.52941 145)" stroke="#C02727" stroke-width="12.0624"/>
<line x1="201.077" y1="56.0758" x2="56.0769" y2="201.076" stroke="#F57676" stroke-opacity="0.45" stroke-width="41.4286"/>
<line x1="239.406" y1="94.871" x2="87.5016" y2="232.966" stroke="#F57676" stroke-opacity="0.46" stroke-width="13.8095"/>
<path d="M123.076 127.485C123.559 124.204 124.459 121.325 125.778 118.848C127.129 116.371 128.818 114.312 130.844 112.672C132.871 110.999 135.187 109.745 137.792 108.908C140.43 108.04 143.277 107.606 146.333 107.606C149.421 107.606 152.219 108.056 154.728 108.957C157.269 109.825 159.44 111.047 161.242 112.624C163.075 114.2 164.474 116.082 165.439 118.269C166.437 120.456 166.935 122.853 166.935 125.458C166.935 127.678 166.662 129.64 166.115 131.344C165.6 133.017 164.844 134.497 163.847 135.783C162.882 137.07 161.692 138.148 160.277 139.016C158.861 139.885 157.269 140.608 155.5 141.187C159.81 142.442 163.043 144.452 165.198 147.219C167.353 149.953 168.431 153.395 168.431 157.544C168.431 160.889 167.804 163.865 166.549 166.47C165.295 169.076 163.59 171.279 161.435 173.08C159.312 174.882 156.819 176.265 153.956 177.23C151.125 178.163 148.118 178.629 144.933 178.629C141.363 178.629 138.275 178.211 135.669 177.375C133.064 176.506 130.812 175.284 128.914 173.708C127.049 172.099 125.489 170.169 124.234 167.918C122.98 165.666 121.918 163.141 121.05 160.343L125.537 158.461C126.727 157.946 127.853 157.801 128.914 158.027C130.008 158.252 130.796 158.847 131.279 159.812C131.793 160.841 132.372 161.951 133.016 163.141C133.659 164.299 134.479 165.377 135.476 166.374C136.506 167.339 137.76 168.159 139.24 168.834C140.752 169.478 142.601 169.799 144.789 169.799C147.008 169.799 148.938 169.446 150.579 168.738C152.251 167.998 153.634 167.065 154.728 165.939C155.854 164.781 156.69 163.495 157.237 162.08C157.784 160.664 158.057 159.265 158.057 157.882C158.057 156.145 157.848 154.553 157.43 153.105C157.012 151.625 156.192 150.371 154.969 149.342C153.779 148.312 152.074 147.508 149.855 146.929C147.668 146.318 144.789 146.012 141.218 146.012V138.534C144.145 138.502 146.606 138.212 148.6 137.665C150.627 137.086 152.235 136.314 153.425 135.349C154.648 134.352 155.516 133.162 156.031 131.779C156.578 130.396 156.851 128.884 156.851 127.243C156.851 125.474 156.578 123.914 156.031 122.563C155.484 121.212 154.712 120.086 153.715 119.186C152.75 118.253 151.592 117.561 150.241 117.111C148.89 116.661 147.394 116.435 145.754 116.435C144.177 116.435 142.714 116.661 141.363 117.111C140.044 117.561 138.854 118.188 137.792 118.993C136.763 119.797 135.895 120.762 135.187 121.888C134.479 122.981 133.965 124.187 133.643 125.506C133.193 126.825 132.581 127.71 131.809 128.16C131.07 128.61 129.976 128.707 128.528 128.45L123.076 127.485Z" fill="white"/>
<defs>
<filter id="filter0_i_1437_330" x="20.7109" y="20.7107" width="248.578" height="276.198" filterUnits="userSpaceOnUse" color-interpolation-filters="sRGB">
<feFlood flood-opacity="0" result="BackgroundImageFix"/>
<feBlend mode="normal" in="SourceGraphic" in2="BackgroundImageFix" result="shape"/>
<feColorMatrix in="SourceAlpha" type="matrix" values="0 0 0 0 0 0 0 0 0 0 0 0 0 0 0 0 0 0 127 0" result="hardAlpha"/>
<feOffset dy="27.619"/>
<feGaussianBlur stdDeviation="13.8095"/>
<feComposite in2="hardAlpha" operator="arithmetic" k2="-1" k3="1"/>
<feColorMatrix type="matrix" values="0 0 0 0 0 0 0 0 0 0 0 0 0 0 0 0 0 0 0.25 0"/>
<feBlend mode="normal" in2="shape" result="effect1_innerShadow_1437_330"/>
</filter>
</defs>
</svg>
