<svg width="60" height="60" viewBox="0 0 60 60" fill="none" xmlns="http://www.w3.org/2000/svg">
<path fill-rule="evenodd" clip-rule="evenodd" d="M29.2231 0.161047C29.0258 0.246952 28.7409 0.448764 28.5898 0.60944C28.4388 0.769998 27.5671 2.38531 26.6527 4.19881C25.7384 6.0123 24.9339 7.49612 24.8652 7.49612C24.7965 7.49612 23.0932 7.73309 21.0801 8.0228C17.0094 8.60855 16.8044 8.67429 16.382 9.52982C16.0938 10.1135 16.0676 10.6328 16.2997 11.1622C16.4432 11.4896 21.0506 16.1071 21.6863 16.5607C21.9148 16.7237 21.9075 16.7931 21.2804 20.4109C20.8319 22.9982 20.6668 24.2256 20.7257 24.5337C20.9121 25.5079 22.0793 26.2501 23.0672 26.0225C23.2973 25.9695 24.9288 25.181 26.6926 24.2703C28.4565 23.3596 29.9535 22.6144 30.0193 22.6144C30.0851 22.6144 31.5663 23.3524 33.3109 24.2543C35.0555 25.1564 36.68 25.9463 36.9209 26.0099C37.3919 26.1343 38.0839 26.0064 38.546 25.7097C38.925 25.4662 39.3234 24.6918 39.3234 24.1983C39.3234 23.9591 39.0484 22.1995 38.7121 20.2883L38.1009 16.8132L40.7381 14.2769C42.1886 12.8819 43.4854 11.5634 43.62 11.3469C44.1202 10.5425 43.794 9.28512 42.9529 8.77543C42.6644 8.60069 41.6695 8.41271 38.9502 8.01952C36.9599 7.73168 35.2579 7.49612 35.1682 7.49612C35.0729 7.49612 34.3171 6.11625 33.3548 4.18533C32.3374 2.14401 31.5727 0.753825 31.3604 0.559749C30.7454 -0.00255842 29.9422 -0.152335 29.2231 0.161047ZM21.2145 30.101C20.6458 30.3571 20.3909 30.6184 20.1433 31.1995C19.9813 31.5797 19.9594 33.3158 19.9594 45.8155V60H30H40.0406V45.8155C40.0406 33.3158 40.0187 31.5797 39.8568 31.1995C39.6091 30.6184 39.3543 30.3571 38.7855 30.101C38.3361 29.8986 37.8081 29.8857 30 29.8857C22.1919 29.8857 21.6639 29.8986 21.2145 30.101ZM1.06242 38.0052C0.734068 38.175 0.435121 38.4509 0.268615 38.7377L0.00170247 39.1977L0.000148563 49.0421C-0.00128581 58.7112 0.00289776 58.8935 0.239928 59.2745C0.699046 60.0129 0.549034 60 8.65992 60H16.0149V48.8664V37.7327H8.80204H1.58931L1.06242 38.0052ZM43.9851 52.7924V60H51.3401C59.451 60 59.301 60.0129 59.7601 59.2745C59.9938 58.8989 60.0013 58.6995 59.9999 52.9682C59.9983 47.0602 59.9978 47.049 59.7314 46.5898C59.5649 46.303 59.266 46.0272 58.9376 45.8573L58.4107 45.5849H51.198H43.9851V52.7924Z" fill="white"/>
</svg>
