<svg width="89" height="110" viewBox="0 0 89 110" fill="none" xmlns="http://www.w3.org/2000/svg">
<path fill-rule="evenodd" clip-rule="evenodd" d="M40.2636 0.579358C24.0423 3.32361 13.7567 19.5388 18.2993 35.2067C21.0103 44.5583 28.3821 51.7205 37.9154 54.2657C40.1247 54.8555 40.9036 54.9326 44.6592 54.9326C48.4148 54.9326 49.1938 54.8555 51.4031 54.2657C60.964 51.7131 68.3015 44.5809 71.0228 35.1951C75.5013 19.7477 65.411 3.53169 49.5487 0.684045C47.4781 0.312367 42.195 0.252692 40.2636 0.579358ZM24.8889 60.7938C14.9482 61.948 6.23935 67.5787 2.45544 75.2983C1.16849 77.924 0.611605 80.349 0.625244 83.2695C0.648147 88.154 2.41658 92.0565 6.55561 96.3551C13.2482 103.306 22.2196 107.525 34.0934 109.307C37.8315 109.868 50.692 109.95 54.3094 109.436C63.3281 108.154 70.6106 105.597 76.5641 101.621C79.3971 99.7282 83.599 95.8029 85.2166 93.537C86.5756 91.6334 87.7316 89.2127 88.2756 87.1303C88.7908 85.1587 88.8 81.365 88.2946 79.1879C86.1116 69.7792 75.9874 62.0557 64.1627 60.7784C61.1719 60.4551 27.6919 60.4685 24.8889 60.7938Z" fill="white"/>
</svg>
