<svg width="60" height="60" viewBox="0 0 60 60" fill="none" xmlns="http://www.w3.org/2000/svg">
<path fill-rule="evenodd" clip-rule="evenodd" d="M6.7527 0.231918C4.24592 0.89595 2.03238 2.70364 0.893951 5.01647C-0.0244418 6.88239 -0.0296608 6.94104 0.0136423 14.9139L0.0527138 22.0963L0.405345 22.6168C0.599292 22.9032 1.00651 23.3109 1.3102 23.5228C1.79499 23.8613 1.99416 23.9082 2.94429 23.9082C3.89442 23.9082 4.09358 23.8613 4.57838 23.5228C4.88207 23.3109 5.28929 22.9032 5.48323 22.617L5.83586 22.0966L5.90639 15.1778C5.98482 7.47959 5.95971 7.67922 6.95892 6.80231C7.25062 6.54642 7.65685 6.26206 7.86152 6.17056C8.12359 6.05354 10.283 5.98334 15.1576 5.93329L22.0816 5.86237L22.6334 5.47692C22.9369 5.26503 23.344 4.8573 23.5379 4.57082C23.838 4.12799 23.8906 3.88931 23.8906 2.97221C23.8906 2.05512 23.838 1.81643 23.5379 1.3736C23.344 1.08712 22.9369 0.679399 22.6332 0.467501L22.0813 0.0820524L14.8048 0.0542789C8.81334 0.0312986 7.39153 0.0627377 6.7527 0.231918ZM37.6411 0.333849C37.2931 0.517409 36.818 0.937821 36.5853 1.26815C36.2032 1.81037 36.1621 1.97461 36.1621 2.96122C36.1621 3.92286 36.2083 4.11982 36.5478 4.6055C36.7598 4.90904 37.1677 5.31606 37.454 5.50991L37.9747 5.86237L44.8968 5.93329C49.7702 5.98334 51.9291 6.05354 52.1912 6.17056C52.7757 6.4318 53.5261 7.15378 53.8133 7.73125C54.0553 8.21792 54.0813 8.79793 54.1463 15.1778L54.2168 22.0966L54.5695 22.617C54.7634 22.9032 55.1706 23.3109 55.4743 23.5228C55.959 23.8612 56.1584 23.9082 57.1067 23.9082C58.0261 23.9082 58.2646 23.8558 58.7078 23.5558C58.9944 23.3619 59.4024 22.9549 59.6144 22.6514L60 22.0994V14.5448V6.99024L59.63 6.03973C58.5903 3.36852 56.7119 1.49104 54.0394 0.451852L53.0884 0.0820524L45.6811 0.0410262L38.2736 0L37.6411 0.333849ZM16.4853 12.1972C14.3474 12.7927 12.7408 14.4211 12.1636 16.5771C12.0127 17.141 11.975 19.8334 11.975 30.041C11.975 40.2486 12.0127 42.941 12.1636 43.5049C12.7497 45.6944 14.3653 47.3092 16.5558 47.895C17.5912 48.1718 42.4615 48.1718 43.4969 47.895C45.7007 47.3057 47.2995 45.7077 47.8891 43.5049C48.04 42.941 48.0777 40.2486 48.0777 30.041C48.0777 19.8334 48.04 17.141 47.8891 16.5771C47.2984 14.37 45.7087 12.7748 43.52 12.1924C42.5015 11.9213 17.4596 11.9258 16.4853 12.1972ZM1.53376 36.4205C1.18466 36.6069 0.708608 37.0297 0.475871 37.36L0.0527138 37.9606V45.5262V53.0918L0.422695 54.0423C1.46239 56.7135 3.34079 58.591 6.01331 59.6302L6.96428 60H14.5209H22.0773L22.5984 59.6475C22.8849 59.4537 23.2929 59.0467 23.5049 58.7431C23.8436 58.2586 23.8906 58.0595 23.8906 57.1098C23.8906 56.1602 23.8436 55.9611 23.5049 55.4765C23.2929 55.173 22.885 54.766 22.5987 54.5721L22.0781 54.2197L15.1559 54.1492C8.77286 54.0842 8.19257 54.0583 7.70565 53.8163C7.1279 53.5293 6.40557 52.7793 6.1442 52.195C6.02713 51.9331 5.95689 49.7748 5.90681 44.9025L5.83586 37.9819L5.45023 37.4304C4.83326 36.5477 4.18428 36.1889 3.10072 36.1312C2.32606 36.0901 2.0613 36.1388 1.53376 36.4205ZM55.6979 36.4205C55.3488 36.6069 54.8727 37.0294 54.64 37.3596L54.2168 37.9599L54.1463 44.8914C54.081 51.3089 54.0562 51.8626 53.8106 52.3563C53.4512 53.0794 52.5687 53.8048 51.8188 53.9935C51.4123 54.0959 48.9813 54.1492 44.726 54.1492H38.2518L37.6301 54.4773C37.2882 54.6576 36.818 55.0754 36.5853 55.4058C36.2032 55.948 36.1621 56.1122 36.1621 57.0988C36.1621 58.0605 36.2083 58.2574 36.5478 58.7431C36.7598 59.0467 37.1677 59.4537 37.4543 59.6475L37.9751 60H45.3908C52.6584 60 52.8261 59.9938 53.7937 59.6873C56.4401 58.8493 58.5553 56.8033 59.63 54.0423L60 53.0918V45.5372V37.9826L59.6144 37.4307C58.9977 36.5478 58.3486 36.1889 57.2649 36.1312C56.4902 36.0901 56.2254 36.1388 55.6979 36.4205Z" fill="white"/>
</svg>
